<svg xmlns="http://www.w3.org/2000/svg" width="117.859" height="55.284" viewBox="0 0 117.859 55.284">
  <path id="Path_52" data-name="Path 52" d="M26.379,113.245c-1.6-4.764-3.206-9.5-4.481-14.417-1.132-4.368-1.7-9.018-3.14-13.234-.335-.981-1.575-.435-1.563.524.089,7.444,2.531,15.676,5.206,22.9a62.021,62.021,0,0,1-10.394-16.1A113.744,113.744,0,0,1,4.74,66.582C1.152,44.96,1,22.494,2.752.6A.491.491,0,1,0,1.785.435,243.2,243.2,0,0,0,3.144,69.023c2.325,13.614,6.9,30.188,15.71,40.224a57.474,57.474,0,0,0-8.944-3.421c-.52-.138-.881.757-.376,1.1,4.865,3.306,10.391,5.376,15.535,7.938C25.781,115.219,26.678,114.132,26.379,113.245Z" transform="matrix(0.259, -0.966, 0.966, 0.259, 0, 25.537)" fill="#fff"/>
</svg>
