<?xml version="1.0" encoding="UTF-8"?>
<svg width="177px" height="91px" viewBox="0 0 177 91" version="1.1" xmlns="http://www.w3.org/2000/svg" xmlns:xlink="http://www.w3.org/1999/xlink">
    <!-- Generator: Sketch 54.1 (76490) - https://sketchapp.com -->
    <title>bugatti</title>
    <desc>Created with Sketch.</desc>
    <g id="Page-1" stroke="none" stroke-width="1" fill="none" fill-rule="evenodd">
        <g id="bugatti">
            <path d="M0.88,45.27 C0.88,20.74 39.92,0.85 88.38,0.85 C136.84,0.85 175.88,20.74 175.88,45.27 C175.88,69.8 136.84,89.69 88.38,89.69 C39.92,89.69 0.88,69.8 0.88,45.27 L0.88,45.27 Z" id="Path" fill="#FFFFFF"></path>
            <path d="M88.38,8.92 C137.85,8.92 167.8,29.16 167.8,45.26 C167.8,61.36 137.85,81.6 88.38,81.6 C38.91,81.6 8.96,61.36 8.96,45.26 C8.96,29.17 38.91,8.92 88.38,8.92 L88.38,8.92 Z" id="Path" fill="#D51224"></path>
            <path d="M88.38,0.47 C136.79,0.47 176.25,20.34 176.25,45.27 C176.25,70.2 136.79,90.07 88.38,90.07 C39.97,90.07 0.51,70.2 0.51,45.27 C0.5,20.34 39.97,0.47 88.38,0.47 L88.38,0.47 Z M88.38,1.22 C39.87,1.22 1.26,21.12 1.26,45.26 C1.26,69.4 39.87,89.3 88.38,89.3 C136.89,89.3 175.5,69.4 175.5,45.26 C175.5,21.13 136.88,1.22 88.38,1.22 L88.38,1.22 Z" id="Shape" fill="#000000" fill-rule="nonzero"></path>
            <path d="M168.18,45.27 C168.18,61.76 137.81,81.99 88.38,81.99 C38.95,81.99 8.58,61.76 8.58,45.27 C8.58,28.78 38.95,8.55 88.38,8.55 C137.81,8.55 168.18,28.78 168.18,45.27 L168.18,45.27 Z M167.42,45.27 C167.42,29.56 137.89,9.3 88.38,9.3 C38.87,9.3 9.34,29.56 9.34,45.27 C9.34,60.98 38.87,81.24 88.38,81.24 C137.89,81.24 167.42,60.98 167.42,45.27 L167.42,45.27 Z" id="Shape" fill="#000000" fill-rule="nonzero"></path>
            <path d="M90.4,4.88 C90.4,6 89.5,6.9 88.38,6.9 C87.26,6.9 86.36,6 86.36,4.88 C86.36,3.76 87.26,2.86 88.38,2.86 C89.49,2.87 90.4,3.77 90.4,4.88 L90.4,4.88 Z" id="Path" fill="#D51224"></path>
            <path d="M83.73,4.94 C83.77,6.05 82.9,6.99 81.78,7.03 C80.67,7.07 79.73,6.2 79.69,5.08 C79.65,3.97 80.52,3.03 81.64,2.99 C82.75,2.95 83.69,3.83 83.73,4.94 L83.73,4.94 Z" id="Path" fill="#D51224"></path>
            <path d="M77.07,5.25 C77.15,6.36 76.31,7.33 75.2,7.41 C74.09,7.49 73.12,6.65 73.05,5.54 C72.97,4.43 73.81,3.46 74.92,3.39 C76.02,3.3 76.99,4.14 77.07,5.25 L77.07,5.25 Z" id="Path" fill="#D51224"></path>
            <path d="M70.42,5.8 C70.56,6.91 69.77,7.91 68.66,8.05 C67.55,8.19 66.55,7.4 66.41,6.29 C66.27,5.18 67.06,4.18 68.17,4.04 C69.28,3.91 70.28,4.69 70.42,5.8 L70.42,5.8 Z" id="Path" fill="#D51224"></path>
            <path d="M63.81,6.67 C63.98,7.77 63.23,8.81 62.13,8.98 C61.03,9.15 59.99,8.4 59.82,7.3 C59.65,6.2 60.4,5.16 61.5,4.99 C62.6,4.81 63.63,5.57 63.81,6.67 L63.81,6.67 Z" id="Path" fill="#D51224"></path>
            <path d="M57.23,7.8 C57.46,8.89 56.77,9.96 55.67,10.19 C54.58,10.42 53.51,9.73 53.28,8.63 C53.05,7.54 53.74,6.47 54.84,6.24 C55.93,6.01 57,6.71 57.23,7.8 L57.23,7.8 Z" id="Path" fill="#D51224"></path>
            <path d="M50.72,9.24 C51.01,10.32 50.37,11.42 49.29,11.71 C48.21,12 47.11,11.36 46.82,10.28 C46.53,9.2 47.17,8.1 48.25,7.81 C49.33,7.52 50.43,8.17 50.72,9.24 L50.72,9.24 Z" id="Path" fill="#D51224"></path>
            <path d="M44.3,11.03 C44.64,12.09 44.06,13.23 43,13.57 C41.94,13.91 40.8,13.33 40.46,12.27 C40.12,11.21 40.7,10.07 41.76,9.73 C42.81,9.39 43.95,9.97 44.3,11.03 L44.3,11.03 Z" id="Path" fill="#D51224"></path>
            <path d="M37.99,13.2 C38.39,14.24 37.87,15.41 36.83,15.81 C35.79,16.21 34.62,15.69 34.22,14.65 C33.82,13.61 34.34,12.44 35.38,12.04 C36.42,11.64 37.59,12.16 37.99,13.2 L37.99,13.2 Z" id="Path" fill="#D51224"></path>
            <path d="M31.82,15.72 C32.31,16.72 31.89,17.93 30.89,18.42 C29.89,18.91 28.68,18.49 28.19,17.49 C27.7,16.49 28.12,15.28 29.12,14.79 C30.12,14.3 31.33,14.72 31.82,15.72 L31.82,15.72 Z" id="Path" fill="#D51224"></path>
            <path d="M25.85,18.72 C26.42,19.68 26.12,20.92 25.16,21.49 C24.2,22.06 22.96,21.76 22.39,20.8 C21.82,19.84 22.12,18.6 23.08,18.03 C24.04,17.45 25.28,17.76 25.85,18.72 L25.85,18.72 Z" id="Path" fill="#D51224"></path>
            <path d="M20.21,22.26 C20.87,23.16 20.67,24.42 19.76,25.08 C18.86,25.74 17.6,25.54 16.94,24.63 C16.28,23.73 16.48,22.47 17.39,21.81 C18.29,21.16 19.55,21.36 20.21,22.26 L20.21,22.26 Z" id="Path" fill="#D51224"></path>
            <path d="M14.93,26.35 C15.72,27.14 15.72,28.42 14.93,29.21 C14.14,30 12.86,30 12.07,29.21 C11.28,28.42 11.28,27.14 12.07,26.35 C12.86,25.56 14.14,25.56 14.93,26.35 L14.93,26.35 Z" id="Path" fill="#D51224"></path>
            <path d="M10.35,31.19 C11.26,31.83 11.49,33.09 10.85,34 C10.21,34.91 8.95,35.14 8.04,34.5 C7.13,33.86 6.9,32.6 7.54,31.69 C8.18,30.78 9.44,30.55 10.35,31.19 L10.35,31.19 Z" id="Path" fill="#D51224"></path>
            <path d="M6.76,36.83 C7.81,37.19 8.37,38.34 8.01,39.4 C7.65,40.45 6.5,41.01 5.44,40.65 C4.39,40.29 3.83,39.14 4.19,38.08 C4.55,37.02 5.7,36.46 6.76,36.83 L6.76,36.83 Z" id="Path" fill="#D51224"></path>
            <path d="M90.4,85.65 C90.4,86.77 89.5,87.67 88.38,87.67 C87.26,87.67 86.36,86.77 86.36,85.65 C86.36,84.53 87.26,83.63 88.38,83.63 C89.5,83.63 90.4,84.54 90.4,85.65 L90.4,85.65 Z" id="Path" fill="#D51224"></path>
            <path d="M83.73,85.59 C83.69,86.7 82.76,87.58 81.64,87.54 C80.53,87.5 79.65,86.57 79.69,85.45 C79.73,84.34 80.66,83.46 81.78,83.5 C82.9,83.55 83.77,84.48 83.73,85.59 L83.73,85.59 Z" id="Path" fill="#D51224"></path>
            <path d="M77.07,85.28 C76.99,86.39 76.03,87.23 74.92,87.15 C73.81,87.07 72.97,86.11 73.05,84.99 C73.13,83.88 74.09,83.04 75.21,83.12 C76.31,83.2 77.15,84.17 77.07,85.28 L77.07,85.28 Z" id="Path" fill="#D51224"></path>
            <path d="M70.42,84.73 C70.28,85.84 69.28,86.62 68.17,86.49 C67.06,86.35 66.28,85.35 66.41,84.24 C66.55,83.13 67.55,82.35 68.66,82.48 C69.77,82.62 70.56,83.63 70.42,84.73 L70.42,84.73 Z" id="Path" fill="#D51224"></path>
            <path d="M63.81,83.87 C63.64,84.97 62.6,85.72 61.5,85.55 C60.4,85.38 59.65,84.34 59.82,83.24 C59.99,82.14 61.03,81.39 62.13,81.56 C63.23,81.73 63.98,82.77 63.81,83.87 L63.81,83.87 Z" id="Path" fill="#D51224"></path>
            <path d="M57.23,82.74 C57,83.83 55.93,84.53 54.84,84.3 C53.75,84.07 53.05,83 53.28,81.91 C53.51,80.82 54.58,80.12 55.67,80.35 C56.77,80.58 57.47,81.65 57.23,82.74 L57.23,82.74 Z" id="Path" fill="#D51224"></path>
            <path d="M50.72,81.29 C50.43,82.37 49.32,83.01 48.25,82.72 C47.17,82.43 46.53,81.32 46.82,80.25 C47.11,79.17 48.22,78.53 49.29,78.82 C50.37,79.11 51.01,80.21 50.72,81.29 L50.72,81.29 Z" id="Path" fill="#D51224"></path>
            <path d="M44.3,79.5 C43.96,80.56 42.82,81.14 41.76,80.8 C40.7,80.46 40.12,79.32 40.46,78.26 C40.8,77.2 41.94,76.62 43,76.96 C44.06,77.3 44.64,78.44 44.3,79.5 L44.3,79.5 Z" id="Path" fill="#D51224"></path>
            <path d="M37.99,77.33 C37.59,78.37 36.42,78.89 35.38,78.49 C34.34,78.09 33.82,76.92 34.22,75.88 C34.62,74.84 35.79,74.32 36.83,74.72 C37.87,75.12 38.39,76.29 37.99,77.33 L37.99,77.33 Z" id="Path" fill="#D51224"></path>
            <path d="M31.82,74.81 C31.33,75.81 30.12,76.23 29.12,75.74 C28.12,75.25 27.7,74.04 28.19,73.04 C28.68,72.04 29.89,71.62 30.89,72.11 C31.89,72.6 32.3,73.81 31.82,74.81 L31.82,74.81 Z" id="Path" fill="#D51224"></path>
            <path d="M25.85,71.82 C25.28,72.78 24.04,73.09 23.08,72.51 C22.12,71.94 21.81,70.7 22.39,69.74 C22.96,68.78 24.21,68.47 25.16,69.05 C26.12,69.62 26.43,70.86 25.85,71.82 L25.85,71.82 Z" id="Path" fill="#D51224"></path>
            <path d="M20.21,68.27 C19.55,69.17 18.29,69.37 17.39,68.72 C16.49,68.06 16.29,66.8 16.94,65.9 C17.6,65 18.86,64.8 19.76,65.45 C20.66,66.11 20.86,67.37 20.21,68.27 L20.21,68.27 Z" id="Path" fill="#D51224"></path>
            <path d="M14.93,64.19 C14.14,64.98 12.86,64.98 12.07,64.19 C11.28,63.4 11.28,62.12 12.07,61.33 C12.86,60.54 14.14,60.54 14.93,61.33 C15.72,62.12 15.72,63.4 14.93,64.19 L14.93,64.19 Z" id="Path" fill="#D51224"></path>
            <path d="M10.35,59.34 C9.44,59.98 8.18,59.76 7.54,58.84 C6.9,57.93 7.12,56.67 8.04,56.03 C8.95,55.39 10.21,55.61 10.85,56.53 C11.48,57.44 11.26,58.7 10.35,59.34 L10.35,59.34 Z" id="Path" fill="#D51224"></path>
            <path d="M6.75,53.71 C5.7,54.07 4.55,53.51 4.18,52.46 C3.82,51.41 4.38,50.26 5.43,49.89 C6.48,49.53 7.63,50.09 8,51.14 C8.37,52.2 7.81,53.35 6.75,53.71 L6.75,53.71 Z" id="Path" fill="#D51224"></path>
            <path d="M4.99,47.29 C3.88,47.33 2.94,46.46 2.9,45.34 C2.86,44.23 3.73,43.29 4.85,43.25 C5.96,43.21 6.9,44.08 6.94,45.2 C6.98,46.31 6.1,47.25 4.99,47.29 L4.99,47.29 Z" id="Path" fill="#D51224"></path>
            <path d="M171.91,43.25 C173.02,43.29 173.9,44.22 173.86,45.34 C173.82,46.45 172.89,47.33 171.77,47.29 C170.66,47.25 169.78,46.32 169.82,45.2 C169.86,44.08 170.8,43.21 171.91,43.25 L171.91,43.25 Z" id="Path" fill="#D51224"></path>
            <path d="M171.32,49.89 C172.37,50.25 172.93,51.4 172.57,52.46 C172.21,53.51 171.06,54.07 170,53.71 C168.95,53.35 168.39,52.2 168.75,51.14 C169.12,50.09 170.26,49.53 171.32,49.89 L171.32,49.89 Z" id="Path" fill="#D51224"></path>
            <path d="M168.73,56.03 C169.64,56.67 169.87,57.93 169.23,58.84 C168.59,59.75 167.33,59.98 166.42,59.34 C165.51,58.7 165.28,57.44 165.92,56.53 C166.56,55.62 167.82,55.39 168.73,56.03 L168.73,56.03 Z" id="Path" fill="#D51224"></path>
            <path d="M164.69,61.33 C165.48,62.12 165.48,63.4 164.69,64.19 C163.9,64.98 162.62,64.98 161.83,64.19 C161.04,63.4 161.04,62.12 161.83,61.33 C162.62,60.55 163.9,60.55 164.69,61.33 L164.69,61.33 Z" id="Path" fill="#D51224"></path>
            <path d="M159.82,65.9 C160.48,66.8 160.28,68.06 159.37,68.72 C158.47,69.38 157.21,69.18 156.55,68.27 C155.89,67.37 156.09,66.11 157,65.45 C157.9,64.8 159.17,65 159.82,65.9 L159.82,65.9 Z" id="Path" fill="#D51224"></path>
            <path d="M154.37,69.74 C154.94,70.7 154.64,71.94 153.68,72.51 C152.72,73.08 151.48,72.78 150.91,71.82 C150.34,70.86 150.64,69.62 151.6,69.05 C152.55,68.47 153.79,68.78 154.37,69.74 L154.37,69.74 Z" id="Path" fill="#D51224"></path>
            <path d="M148.57,73.04 C149.06,74.04 148.64,75.25 147.64,75.74 C146.64,76.23 145.43,75.81 144.94,74.81 C144.45,73.81 144.87,72.6 145.87,72.11 C146.88,71.62 148.08,72.04 148.57,73.04 L148.57,73.04 Z" id="Path" fill="#D51224"></path>
            <path d="M142.54,75.89 C142.94,76.93 142.42,78.1 141.38,78.5 C140.34,78.9 139.17,78.38 138.77,77.34 C138.37,76.3 138.89,75.13 139.93,74.73 C140.97,74.33 142.14,74.84 142.54,75.89 L142.54,75.89 Z" id="Path" fill="#D51224"></path>
            <path d="M136.3,78.25 C136.64,79.31 136.06,80.45 135,80.79 C133.94,81.13 132.8,80.55 132.46,79.49 C132.12,78.43 132.7,77.29 133.76,76.95 C134.82,76.61 135.96,77.19 136.3,78.25 L136.3,78.25 Z" id="Path" fill="#D51224"></path>
            <path d="M129.94,80.25 C130.23,81.33 129.59,82.43 128.51,82.72 C127.43,83.01 126.33,82.37 126.04,81.29 C125.75,80.21 126.39,79.11 127.47,78.82 C128.54,78.53 129.65,79.17 129.94,80.25 L129.94,80.25 Z" id="Path" fill="#D51224"></path>
            <path d="M123.47,81.9 C123.7,82.99 123.01,84.06 121.91,84.29 C120.82,84.52 119.75,83.83 119.52,82.73 C119.29,81.64 119.98,80.57 121.08,80.34 C122.17,80.11 123.24,80.81 123.47,81.9 L123.47,81.9 Z" id="Path" fill="#D51224"></path>
            <path d="M116.94,83.24 C117.11,84.34 116.36,85.38 115.26,85.55 C114.16,85.72 113.12,84.97 112.95,83.87 C112.78,82.77 113.53,81.73 114.63,81.56 C115.73,81.38 116.77,82.13 116.94,83.24 L116.94,83.24 Z" id="Path" fill="#D51224"></path>
            <path d="M110.35,84.24 C110.49,85.35 109.7,86.35 108.59,86.49 C107.48,86.63 106.48,85.84 106.34,84.73 C106.2,83.62 106.99,82.62 108.1,82.48 C109.21,82.34 110.21,83.13 110.35,84.24 L110.35,84.24 Z" id="Path" fill="#D51224"></path>
            <path d="M103.72,85 C103.8,86.11 102.96,87.08 101.85,87.16 C100.74,87.24 99.77,86.4 99.69,85.29 C99.61,84.18 100.45,83.21 101.56,83.13 C102.68,83.05 103.64,83.89 103.72,85 L103.72,85 Z" id="Path" fill="#D51224"></path>
            <path d="M97.06,85.45 C97.1,86.56 96.23,87.5 95.11,87.54 C94,87.58 93.06,86.71 93.02,85.59 C92.98,84.48 93.85,83.54 94.97,83.5 C96.09,83.47 97.03,84.34 97.06,85.45 L97.06,85.45 Z" id="Path" fill="#D51224"></path>
            <path d="M86.36,4.88 C86.36,3.76 87.26,2.86 88.38,2.86 C89.49,2.86 90.4,3.76 90.4,4.88 C90.4,6 89.5,6.9 88.38,6.9 C87.27,6.9 86.36,6 86.36,4.88 L86.36,4.88 Z" id="Path" fill="#D51224"></path>
            <path d="M93.03,4.94 C93.07,3.83 94,2.95 95.12,2.99 C96.23,3.03 97.11,3.96 97.07,5.08 C97.03,6.19 96.1,7.07 94.98,7.03 C93.86,6.99 92.99,6.05 93.03,4.94 L93.03,4.94 Z" id="Path" fill="#D51224"></path>
            <path d="M99.69,5.25 C99.77,4.14 100.73,3.3 101.85,3.38 C102.96,3.46 103.8,4.42 103.72,5.53 C103.64,6.64 102.68,7.48 101.57,7.4 C100.45,7.33 99.62,6.37 99.69,5.25 L99.69,5.25 Z" id="Path" fill="#D51224"></path>
            <path d="M106.34,5.8 C106.48,4.69 107.48,3.91 108.59,4.04 C109.7,4.18 110.48,5.18 110.35,6.29 C110.21,7.4 109.21,8.18 108.1,8.05 C106.99,7.92 106.2,6.91 106.34,5.8 L106.34,5.8 Z" id="Path" fill="#D51224"></path>
            <path d="M112.95,6.67 C113.12,5.57 114.16,4.82 115.26,4.99 C116.36,5.16 117.11,6.2 116.94,7.3 C116.77,8.4 115.73,9.15 114.63,8.98 C113.53,8.8 112.78,7.77 112.95,6.67 L112.95,6.67 Z" id="Path" fill="#D51224"></path>
            <path d="M119.53,7.8 C119.76,6.71 120.83,6.01 121.92,6.24 C123.01,6.47 123.71,7.54 123.48,8.63 C123.25,9.72 122.18,10.42 121.08,10.19 C119.99,9.96 119.29,8.89 119.53,7.8 L119.53,7.8 Z" id="Path" fill="#D51224"></path>
            <path d="M126.04,9.24 C126.33,8.16 127.44,7.52 128.51,7.81 C129.59,8.1 130.23,9.21 129.94,10.28 C129.65,11.36 128.54,12 127.47,11.71 C126.39,11.43 125.75,10.32 126.04,9.24 L126.04,9.24 Z" id="Path" fill="#D51224"></path>
            <path d="M132.46,11.03 C132.8,9.97 133.94,9.39 135,9.73 C136.06,10.07 136.64,11.21 136.3,12.27 C135.96,13.33 134.82,13.91 133.76,13.57 C132.7,13.23 132.12,12.1 132.46,11.03 L132.46,11.03 Z" id="Path" fill="#D51224"></path>
            <path d="M138.77,13.2 C139.17,12.16 140.34,11.64 141.38,12.04 C142.42,12.44 142.94,13.61 142.54,14.65 C142.14,15.69 140.97,16.21 139.93,15.81 C138.89,15.41 138.37,14.24 138.77,13.2 L138.77,13.2 Z" id="Path" fill="#D51224"></path>
            <path d="M144.94,15.72 C145.43,14.72 146.64,14.3 147.64,14.79 C148.64,15.28 149.06,16.49 148.57,17.49 C148.08,18.49 146.87,18.91 145.87,18.42 C144.87,17.93 144.45,16.72 144.94,15.72 L144.94,15.72 Z" id="Path" fill="#D51224"></path>
            <path d="M150.9,18.72 C151.47,17.76 152.71,17.45 153.67,18.03 C154.63,18.6 154.94,19.84 154.36,20.8 C153.79,21.76 152.55,22.07 151.59,21.49 C150.64,20.91 150.33,19.67 150.9,18.72 L150.9,18.72 Z" id="Path" fill="#D51224"></path>
            <path d="M156.55,22.26 C157.21,21.36 158.47,21.16 159.37,21.81 C160.27,22.47 160.47,23.73 159.82,24.63 C159.16,25.53 157.9,25.73 157,25.08 C156.1,24.43 155.9,23.16 156.55,22.26 L156.55,22.26 Z" id="Path" fill="#D51224"></path>
            <path d="M161.83,26.35 C162.62,25.56 163.9,25.56 164.69,26.35 C165.48,27.14 165.48,28.42 164.69,29.21 C163.9,30 162.62,30 161.83,29.21 C161.04,28.41 161.04,27.13 161.83,26.35 L161.83,26.35 Z" id="Path" fill="#D51224"></path>
            <path d="M166.41,31.19 C167.32,30.55 168.58,30.77 169.22,31.69 C169.86,32.6 169.64,33.86 168.72,34.5 C167.81,35.14 166.55,34.92 165.91,34 C165.27,33.09 165.5,31.83 166.41,31.19 L166.41,31.19 Z" id="Path" fill="#D51224"></path>
            <path d="M170,36.83 C171.05,36.47 172.2,37.03 172.57,38.08 C172.93,39.13 172.37,40.28 171.32,40.65 C170.27,41.01 169.12,40.45 168.75,39.4 C168.39,38.34 168.95,37.19 170,36.83 L170,36.83 Z" id="Path" fill="#D51224"></path>
            <path d="M23.59,59.34 L32.31,59.34 C35.96,59.34 38.52,55.45 38.52,52.25 C38.52,49.19 37.08,47.38 35.42,46.47 L34.76,46.11 L35.4,45.72 C36.89,44.81 37.85,42.32 37.85,40.62 C37.85,38.47 36.55,35.48 33.65,34.52 L33.76,34.22 C34.52,34.47 35.13,34.83 35.6,35.16 C36.09,35.5 36.41,35.82 36.56,35.95 C36.93,36.29 37.57,36.88 38.15,37.53 C38.65,38.1 39.06,38.63 39.35,39.06 C40.21,40.33 40.61,41.82 40.61,43.03 C40.61,44.72 39.71,47.2 38.21,48.28 L38.11,48.35 L39.25,49.49 C40.42,50.58 41.28,52.27 41.28,54.66 C41.28,57.97 38.63,62.08 34.74,62.08 L25.48,62.08 L23.17,59.77 L23.59,59.34 L23.59,59.34 Z M30.65,56.1 L27.9,56.1 L27.9,47.71 L30.99,47.71 C32.34,47.71 33.46,48.94 33.89,50.52 C33.73,50.48 33.57,50.45 33.41,50.45 L30.65,50.45 L30.65,56.1 L30.65,56.1 Z M30.65,44.46 C30.55,44.47 30.44,44.47 30.33,44.47 L27.9,44.47 L27.9,37.45 L30.33,37.45 C31.79,37.45 33.1,38.44 33.37,40.26 C33.17,40.21 32.96,40.19 32.75,40.19 L30.65,40.19 L30.65,44.46 L30.65,44.46 Z" id="Shape" fill="#FFFFFF"></path>
            <path d="M51.98,59.96 C56.05,59.96 59.52,56.58 59.52,52.46 L59.52,34.35 L59.95,33.92 L62.26,36.23 L62.26,54.87 C62.26,59.17 58.64,62.69 54.39,62.69 C52.56,62.69 50.65,61.93 48.75,60.51 C47.41,59.51 46.08,57.78 45.87,57.35 C45.79,57.19 45.47,56.66 45.13,55.95 L45.3,55.9 C46.59,58.31 49.14,59.96 51.98,59.96 L51.98,59.96 Z M49.33,33.92 L51.65,36.23 L51.65,54.87 C51.65,55.08 51.67,55.28 51.72,55.47 C50.05,55.34 48.91,54.01 48.91,52.46 L48.91,34.35 L49.33,33.92 L49.33,33.92 Z" id="Shape" fill="#FFFFFF"></path>
            <path d="M67.36,57.18 C67.28,57.01 66.94,56.45 66.58,55.7 L66.76,55.64 C68,58.18 70.66,59.96 73.61,59.96 C78.75,59.96 81.1,56.98 81.1,52.46 L81.1,46.67 L81.53,46.24 L83.85,48.55 L83.85,54.88 C83.85,59.56 81.38,62.7 76.03,62.7 C74.1,62.7 72.25,61.95 70.34,60.52 C68.94,59.47 67.57,57.62 67.36,57.18 L67.36,57.18 Z M76.66,52.5 L74.34,50.19 L74.77,49.76 L77.31,49.76 L77.31,52.46 L77.31,52.5 L76.66,52.5 L76.66,52.5 Z M70.47,52.46 L70.47,41.08 C70.47,39.28 71.74,37.74 73.58,37.58 C75.6,37.4 77.05,38.71 77.29,40.54 C76.92,40.4 76.49,40.28 76.03,40.32 C74.38,40.46 73.22,41.87 73.22,43.49 L73.22,54.87 C73.22,55.18 73.27,55.48 73.37,55.77 C71.66,55.52 70.47,54.02 70.47,52.46 L70.47,52.46 Z M79.36,35.1 C80.02,35.6 80.71,36.18 81.42,37.01 C82.07,37.77 82.54,38.51 82.87,39.12 C83.53,40.33 83.85,41.81 83.85,43.5 L83.85,43.93 L79.35,43.93 L77.03,41.62 L77.46,41.19 L81.1,41.19 L81.1,41.09 C81.1,37.63 79.72,35.05 76.73,34.05 L76.8,33.73 C77.83,34.06 78.64,34.55 79.36,35.1 L79.36,35.1 Z" id="Shape" fill="#FFFFFF"></path>
            <path d="M95.84,50.85 L92.54,50.85 L95.26,38.81 C95.43,38.07 95.97,38.09 96.11,38.82 L97.27,44.54 L95.84,50.85 L95.84,50.85 Z M100.06,59.77 L100.49,59.34 L104.84,59.34 L99.09,34.34 L99.41,33.93 L101.73,36.24 L107.89,62.08 L102.38,62.08 L100.06,59.77 L100.06,59.77 Z M94.38,57.29 L93.3,62.08 L87.91,62.08 L85.61,59.78 L86.18,59.34 L90.62,59.34 L91.7,54.55 L99.3,54.55 L99.86,57.29 L94.38,57.29 L94.38,57.29 Z" id="Shape" fill="#FFFFFF"></path>
            <path d="M111.94,59.82 L112.37,59.39 L116.67,59.39 L116.67,38.13 L121.99,38.13 L121.99,34.36 L122.42,33.93 L124.74,36.24 L124.74,40.88 L119.42,40.88 L119.42,62.14 L114.25,62.14 L111.94,59.82 L111.94,59.82 Z M108.94,40.87 L106.63,38.56 L107.06,38.13 L112.23,38.13 L112.23,40.87 L108.94,40.87 L108.94,40.87 Z" id="Shape" fill="#FFFFFF"></path>
            <path d="M128.39,40.87 L126.08,38.56 L126.51,38.13 L131.68,38.13 L131.68,40.87 L128.39,40.87 L128.39,40.87 Z M141.88,33.92 L144.2,36.23 L144.2,40.87 L138.88,40.87 L138.88,62.13 L133.71,62.13 L131.4,59.82 L131.83,59.39 L136.13,59.39 L136.13,38.13 L141.45,38.13 L141.45,34.36 L141.88,33.92 L141.88,33.92 Z" id="Shape" fill="#FFFFFF"></path>
            <polygon id="Path" fill="#FFFFFF" points="151.29 33.92 153.6 36.23 153.6 62.08 148.44 62.08 146.12 59.77 146.55 59.34 150.86 59.34 150.86 34.35"></polygon>
            <path d="M38.36,40.61 C38.36,39.24 37.87,37.53 36.79,36.16 C37.17,36.51 37.68,36.99 38.15,37.53 C38.65,38.1 39.06,38.63 39.35,39.06 C40.21,40.33 40.61,41.82 40.61,43.03 C40.61,44.72 39.71,47.2 38.21,48.28 L38.11,48.35 L39.25,49.49 C40.42,50.58 41.28,52.27 41.28,54.66 C41.28,57.97 38.63,62.08 34.74,62.08 L25.48,62.08 L23.23,59.83 L32.32,59.83 C36.34,59.83 39.03,55.61 39.03,52.24 C39.03,49.06 37.54,47.08 35.77,46.08 C37.4,45.02 38.36,42.38 38.36,40.61 L38.36,40.61 Z M30.65,55.6 L28.4,55.6 L28.4,48.2 L31,48.2 C31.99,48.2 32.95,49.13 33.37,50.45 L30.65,50.45 L30.65,55.6 L30.65,55.6 Z M30.32,37.94 C31.48,37.94 32.57,38.68 32.85,40.19 L32.74,40.19 L30.64,40.19 L30.64,43.96 C30.54,43.97 30.43,43.98 30.32,43.98 L28.39,43.98 L28.39,37.94 L30.32,37.94 L30.32,37.94 Z" id="Shape" fill="#A69DCD"></path>
            <path d="M51.64,54.87 L51.64,54.97 C50.28,54.81 49.38,53.73 49.38,52.46 L49.38,33.98 L51.63,36.23 L51.64,54.87 L51.64,54.87 Z M46.54,58.29 C47.99,59.63 49.91,60.45 51.99,60.45 C56.33,60.45 60.03,56.85 60.03,52.46 L60.03,33.98 L62.28,36.23 L62.28,54.87 C62.28,59.17 58.66,62.69 54.41,62.69 C52.58,62.69 50.67,61.93 48.77,60.51 C47.93,59.9 47.1,58.99 46.54,58.29 L46.54,58.29 Z" id="Shape" fill="#A69DCD"></path>
            <path d="M68.11,58.27 C69.57,59.62 71.52,60.46 73.61,60.46 C79.06,60.46 81.59,57.23 81.59,52.47 L81.59,46.31 L83.84,48.56 L83.84,54.89 C83.84,59.57 81.37,62.71 76.02,62.71 C74.09,62.71 72.24,61.96 70.33,60.53 C69.51,59.9 68.69,58.99 68.11,58.27 L68.11,58.27 Z M74.41,50.25 L76.83,50.25 L76.83,52.46 L76.83,52.5 L76.67,52.5 L74.41,50.25 L74.41,50.25 Z M73.62,38.08 C75.26,37.94 76.47,38.92 76.76,40.39 C76.53,40.34 76.28,40.31 76.03,40.33 C74.38,40.47 73.22,41.88 73.22,43.5 L73.22,54.88 C73.22,55.01 73.23,55.13 73.25,55.25 C71.9,54.95 70.97,53.72 70.97,52.46 L70.97,41.08 C70.96,39.52 72.07,38.21 73.62,38.08 L73.62,38.08 Z M77.09,41.68 L81.59,41.68 L81.59,41.08 C81.59,38.75 80.98,36.78 79.72,35.38 C80.27,35.82 80.83,36.32 81.41,37 C82.06,37.76 82.53,38.5 82.86,39.11 C83.52,40.32 83.84,41.8 83.84,43.49 L83.84,43.92 L79.34,43.92 L77.09,41.68 L77.09,41.68 Z" id="Shape" fill="#A69DCD"></path>
            <path d="M95.95,50.36 L93.15,50.36 L95.67,39.19 L96.99,45.71 L95.95,50.36 L95.95,50.36 Z M100.12,59.83 L105.46,59.83 L99.53,34.04 L101.73,36.23 L107.89,62.07 L102.38,62.07 L100.12,59.83 L100.12,59.83 Z M85.66,59.83 L91.01,59.83 L92.09,55.04 L98.89,55.04 L99.35,57.29 L94.39,57.29 L93.31,62.08 L87.92,62.08 L85.66,59.83 L85.66,59.83 Z" id="Shape" fill="#A69DCD"></path>
            <path d="M112,59.88 L117.17,59.88 L117.17,38.62 L122.49,38.62 L122.49,33.98 L124.74,36.23 L124.74,40.87 L119.42,40.87 L119.42,62.13 L114.25,62.13 L112,59.88 L112,59.88 Z M106.68,38.62 L111.73,38.62 L111.73,40.87 L108.94,40.87 L106.68,38.62 L106.68,38.62 Z" id="Shape" fill="#A69DCD"></path>
            <path d="M126.14,38.62 L131.19,38.62 L131.19,40.87 L128.4,40.87 L126.14,38.62 L126.14,38.62 Z M131.45,59.88 L136.62,59.88 L136.62,38.62 L141.94,38.62 L141.94,33.98 L144.19,36.23 L144.19,40.87 L138.87,40.87 L138.87,62.13 L133.7,62.13 L131.45,59.88 L131.45,59.88 Z" id="Shape" fill="#A69DCD"></path>
            <polygon id="Path" fill="#A69DCD" points="146.18 59.83 151.35 59.83 151.35 33.98 153.6 36.23 153.6 62.08 148.44 62.08"></polygon>
            <path d="M23.01,59.77 L23.55,59.23 L32.32,59.23 C35.89,59.23 38.43,55.41 38.43,52.24 C38.43,49.22 37.01,47.44 35.39,46.56 L34.57,46.11 L35.37,45.62 C36.82,44.74 37.77,42.29 37.77,40.61 C37.77,38.46 36.46,35.49 33.54,34.58 L33.72,34.08 C35.35,34.6 36.35,35.6 36.65,35.87 C37.02,36.21 37.67,36.8 38.25,37.46 C38.76,38.03 39.17,38.57 39.46,39 C40.33,40.29 40.73,41.8 40.73,43.03 C40.73,44.74 39.82,47.26 38.28,48.36 L39.33,49.41 C40.52,50.53 41.39,52.24 41.39,54.66 C41.39,58 38.72,62.19 34.74,62.19 L25.44,62.19 L23.01,59.77 L23.01,59.77 Z M30.75,50.55 L30.75,56.2 L27.79,56.2 L27.79,47.6 L30.99,47.6 C32.46,47.6 33.64,48.99 34.04,50.67 C33.84,50.59 33.62,50.55 33.41,50.55 L30.75,50.55 L30.75,50.55 Z M30.75,40.29 L30.75,44.55 C30.61,44.56 30.47,44.57 30.32,44.57 L27.79,44.57 L27.79,37.34 L30.32,37.34 C31.87,37.34 33.26,38.42 33.49,40.4 C33.25,40.33 33,40.3 32.74,40.3 L30.75,40.3 L30.75,40.29 Z" id="Shape" fill="#000000" fill-rule="nonzero"></path>
            <path d="M45.36,55.79 C46.61,58.19 49.15,59.86 51.98,59.86 C55.99,59.86 59.42,56.52 59.42,52.47 L59.42,34.32 L59.96,33.78 L62.38,36.19 L62.38,54.88 C62.38,59.24 58.71,62.81 54.41,62.81 C52.55,62.81 50.62,62.04 48.71,60.61 C47.36,59.6 46.02,57.86 45.8,57.41 C45.72,57.24 45.37,56.66 45,55.89 L45.36,55.79 L45.36,55.79 Z M48.79,34.31 L49.33,33.77 L51.75,36.18 L51.75,54.87 C51.75,55.12 51.78,55.36 51.85,55.58 C50.04,55.51 48.8,54.11 48.8,52.45 L48.79,34.31 L48.79,34.31 Z" id="Shape" fill="#000000" fill-rule="nonzero"></path>
            <path d="M97.37,44.54 L95.92,50.96 L92.4,50.96 L95.15,38.79 C95.35,37.94 96.04,37.97 96.2,38.8 L97.37,44.54 L97.37,44.54 Z M102.33,62.18 L99.91,59.77 L100.45,59.23 L104.71,59.23 L98.98,34.31 L99.41,33.77 L101.83,36.18 L108.03,62.18 L102.33,62.18 L102.33,62.18 Z M99.98,57.39 L94.47,57.39 L93.39,62.18 L87.88,62.18 L85.46,59.77 L86.15,59.23 L90.54,59.23 L91.62,54.44 L99.38,54.44 L99.98,57.39 L99.98,57.39 Z" id="Shape" fill="#000000" fill-rule="nonzero"></path>
            <path d="M114.21,62.23 L111.79,59.82 L112.33,59.28 L116.57,59.28 L116.57,38.02 L121.89,38.02 L121.89,34.31 L122.43,33.77 L124.85,36.18 L124.85,40.97 L119.53,40.97 L119.53,62.23 L114.21,62.23 L114.21,62.23 Z M112.33,40.98 L108.9,40.98 L106.48,38.57 L107.02,38.03 L112.34,38.03 L112.34,40.98 L112.33,40.98 Z" id="Shape" fill="#000000" fill-rule="nonzero"></path>
            <path d="M131.78,40.98 L128.35,40.98 L125.93,38.57 L126.47,38.03 L131.79,38.03 L131.79,40.98 L131.78,40.98 Z M141.34,34.31 L141.88,33.77 L144.3,36.18 L144.3,40.97 L138.98,40.97 L138.98,62.23 L133.66,62.23 L131.24,59.82 L131.78,59.28 L136.02,59.28 L136.02,38.02 L141.34,38.02 L141.34,34.31 L141.34,34.31 Z" id="Shape" fill="#000000" fill-rule="nonzero"></path>
            <polygon id="Path" fill="#000000" fill-rule="nonzero" points="150.75 34.31 151.29 33.77 153.71 36.19 153.71 62.18 148.39 62.18 145.97 59.77 146.51 59.23 150.75 59.23"></polygon>
            <path d="M70.28,60.61 C68.87,59.55 67.49,57.69 67.27,57.23 C67.19,57.05 66.81,56.44 66.44,55.64 L66.82,55.52 C68.03,58.07 70.68,59.86 73.62,59.86 C78.7,59.86 81,56.93 81,52.47 L81,46.63 L81.54,46.09 L83.96,48.5 L83.96,54.87 C83.96,59.6 81.45,62.8 76.04,62.8 C74.07,62.8 72.2,62.04 70.28,60.61 L70.28,60.61 Z M77.42,52.6 L76.61,52.6 L74.19,50.19 L74.73,49.65 L77.42,49.65 L77.42,52.46 L77.42,52.6 L77.42,52.6 Z M73.52,55.9 C71.67,55.71 70.36,54.12 70.36,52.46 L70.36,41.08 C70.36,39.23 71.67,37.64 73.56,37.48 C75.7,37.29 77.23,38.74 77.4,40.71 C76.99,40.54 76.53,40.39 76.03,40.43 C74.44,40.57 73.32,41.92 73.32,43.5 L73.32,54.88 C73.32,55.23 73.39,55.57 73.52,55.9 L73.52,55.9 Z M76.73,33.59 C77.82,33.93 78.67,34.45 79.42,35.01 C80.08,35.52 80.78,36.1 81.5,36.93 C82.16,37.7 82.63,38.45 82.97,39.06 C83.64,40.29 83.96,41.79 83.96,43.49 L83.96,44.03 L79.31,44.03 L76.89,41.62 L77.43,41.08 L81,41.08 C81,37.61 79.61,35.07 76.61,34.11 L76.73,33.59 L76.73,33.59 Z" id="Shape" fill="#000000" fill-rule="nonzero"></path>
            <path d="M28.33,48.14 L28.33,55.67 L30.99,55.67 C32.68,55.67 33.65,53.82 33.65,51.91 C33.65,49.86 32.37,48.15 30.99,48.15 L28.33,48.15 L28.33,48.14 Z M28.33,37.88 L28.33,44.04 L30.32,44.04 C32.01,44.04 32.98,42.87 32.98,40.96 C32.98,38.91 31.7,37.88 30.32,37.88 L28.33,37.88 L28.33,37.88 Z M35.64,46.09 C37.44,47.07 38.96,49.03 38.96,52.25 C38.96,55.59 36.29,59.78 32.31,59.78 L23.01,59.78 L23.01,33.78 L31.65,33.78 C36.3,33.78 38.3,37.88 38.3,40.62 C38.3,42.4 37.31,45.07 35.64,46.09 L35.64,46.09 Z" id="Shape" fill="#FFFFFF"></path>
            <path d="M54.64,52.46 L54.64,33.77 L59.96,33.77 L59.96,52.46 C59.96,56.82 56.29,60.39 51.99,60.39 C47.68,60.39 44.02,56.82 44.02,52.46 L44.02,33.77 L49.34,33.77 L49.34,52.46 C49.34,53.86 50.42,55.05 52,55.05 C53.56,55.05 54.64,53.87 54.64,52.46 L54.64,52.46 Z" id="Path" fill="#FFFFFF"></path>
            <path d="M76.88,52.46 L76.88,50.19 L74.19,50.19 L74.19,46.09 L81.53,46.09 L81.53,52.46 C81.53,57.19 79.02,60.39 73.61,60.39 C69.31,60.39 65.58,56.82 65.58,52.46 L65.58,41.08 C65.58,36.72 69.3,33.15 73.61,33.15 C79.02,33.15 81.53,36.35 81.53,41.08 L81.53,41.62 L76.88,41.62 L76.88,41.08 C76.88,39.21 75.54,37.84 73.61,38.01 C72.02,38.15 70.9,39.48 70.9,41.08 L70.9,52.46 C70.9,53.86 72.02,55.23 73.61,55.37 C75.55,55.54 76.88,54.33 76.88,52.46 L76.88,52.46 Z" id="Path" fill="#FFFFFF"></path>
            <path d="M98.02,50.42 L95.68,38.9 L93.08,50.42 L98.02,50.42 L98.02,50.42 Z M85.45,59.77 L92.1,33.77 L99.41,33.77 L105.39,59.77 L99.92,59.77 L98.95,54.98 L92.06,54.98 L90.98,59.77 L85.45,59.77 L85.45,59.77 Z" id="Shape" fill="#FFFFFF"></path>
            <polygon id="Path" fill="#FFFFFF" points="117.11 59.82 111.79 59.82 111.79 38.56 106.48 38.56 106.48 33.77 122.42 33.77 122.42 38.56 117.11 38.56"></polygon>
            <polygon id="Path" fill="#FFFFFF" points="136.56 59.82 131.25 59.82 131.25 38.56 125.93 38.56 125.93 33.77 141.88 33.77 141.88 38.56 136.56 38.56"></polygon>
            <polygon id="Path" fill="#FFFFFF" points="145.97 33.77 151.29 33.77 151.29 59.77 145.97 59.77"></polygon>
            <path d="M89.87,22.24 L89.87,26.61 L94.19,26.61 C95.55,26.61 96.37,25.63 96.37,24.43 C96.37,23.23 95.55,22.25 94.19,22.25 L89.87,22.25 L89.87,22.24 Z M89.87,15.47 L89.87,19.36 L94.19,19.36 C95.4,19.36 96.14,18.48 96.14,17.41 C96.14,16.34 95.4,15.46 94.19,15.46 L89.87,15.46 L89.87,15.47 Z M81.53,22.34 L81.53,19.25 L81.53,18.32 L83.93,18.32 L83.93,19.35 L86.63,19.35 L86.63,15.46 L80.14,15.46 L80.14,16.77 L77.74,16.77 L77.74,15.57 L77.74,13.06 L94.19,13.06 C96.72,13.06 98.78,15.11 98.78,17.65 C98.78,18.81 98.35,19.87 97.64,20.67 L97.58,20.74 L97.65,20.81 C98.5,21.68 99.02,22.87 99.02,24.18 C99.02,26.84 96.86,29 94.19,29 L77.74,29 L77.74,26.49 L77.74,25.29 L80.14,25.29 L80.14,26.6 L86.63,26.6 L86.63,22.23 L83.93,22.23 L83.93,23.26 L81.53,23.26 L81.53,22.34 L81.53,22.34 Z" id="Shape" fill="#A69DCD"></path>
            <path d="M94.19,26.5 C95.49,26.5 96.27,25.57 96.27,24.42 C96.27,23.27 95.49,22.34 94.19,22.34 L89.97,22.34 L89.97,26.5 L94.19,26.5 L94.19,26.5 Z M94.19,19.26 C95.33,19.26 96.03,18.44 96.03,17.42 C96.03,16.4 95.33,15.58 94.19,15.58 L89.97,15.58 L89.97,19.26 L94.19,19.26 L94.19,19.26 Z M84.04,22.34 L84.04,23.37 L81.43,23.37 L81.43,22.34 L81.43,19.25 L81.43,18.22 L84.04,18.22 L84.04,19.25 L86.53,19.25 L86.53,15.57 L80.25,15.57 L80.25,16.88 L77.64,16.88 L77.64,15.57 L77.64,12.96 L94.2,12.96 C96.79,12.96 98.89,15.06 98.89,17.65 C98.89,18.83 98.45,19.92 97.73,20.74 C98.6,21.63 99.13,22.84 99.13,24.18 C99.13,26.9 96.92,29.11 94.2,29.11 L77.64,29.11 L77.64,26.5 L77.64,25.19 L80.25,25.19 L80.25,26.5 L86.53,26.5 L86.53,22.34 L84.04,22.34 L84.04,22.34 Z" id="Shape" fill="#000000" fill-rule="nonzero"></path>
        </g>
    </g>
</svg>